<mxfile host="app.diagrams.net" modified="2024-05-22T07:34:47.761Z" agent="Mozilla/5.0 (Windows NT 10.0; Win64; x64) AppleWebKit/537.36 (KHTML, like Gecko) Chrome/124.0.0.0 Safari/537.36" etag="HcnrKunFwNeH_RMpalBo" version="24.4.4" type="device">
  <diagram id="prtHgNgQTEPvFCAcTncT" name="Page-1">
    <mxGraphModel dx="1434" dy="780" grid="1" gridSize="10" guides="1" tooltips="1" connect="1" arrows="1" fold="1" page="1" pageScale="1" pageWidth="2339" pageHeight="3300" background="#ffffff" math="0" shadow="0">
      <root>
        <mxCell id="0" />
        <mxCell id="1" parent="0" />
        <mxCell id="BmjrZnvKZ_t4JOuIgSai-1" value="App.vue" style="rounded=0;whiteSpace=wrap;html=1;labelBackgroundColor=none;" parent="1" vertex="1">
          <mxGeometry x="1120" y="246" width="120" height="60" as="geometry" />
        </mxCell>
        <mxCell id="BmjrZnvKZ_t4JOuIgSai-31" style="edgeStyle=orthogonalEdgeStyle;rounded=0;orthogonalLoop=1;jettySize=auto;html=1;exitX=0;exitY=0.5;exitDx=0;exitDy=0;entryX=1;entryY=0.5;entryDx=0;entryDy=0;endArrow=none;endFill=0;labelBackgroundColor=none;fontColor=default;" parent="1" source="BmjrZnvKZ_t4JOuIgSai-20" target="BmjrZnvKZ_t4JOuIgSai-30" edge="1">
          <mxGeometry relative="1" as="geometry" />
        </mxCell>
        <mxCell id="BmjrZnvKZ_t4JOuIgSai-20" value="movie" style="rounded=0;whiteSpace=wrap;html=1;labelBackgroundColor=none;" parent="1" vertex="1">
          <mxGeometry x="879" y="490" width="120" height="60" as="geometry" />
        </mxCell>
        <mxCell id="BmjrZnvKZ_t4JOuIgSai-28" value="MainCarousel" style="rounded=0;whiteSpace=wrap;html=1;labelBackgroundColor=none;" parent="1" vertex="1">
          <mxGeometry x="959" y="576" width="120" height="60" as="geometry" />
        </mxCell>
        <mxCell id="BmjrZnvKZ_t4JOuIgSai-30" value="MovieDetail" style="rounded=0;whiteSpace=wrap;html=1;labelBackgroundColor=none;" parent="1" vertex="1">
          <mxGeometry x="739" y="490" width="120" height="60" as="geometry" />
        </mxCell>
        <mxCell id="BmjrZnvKZ_t4JOuIgSai-69" value="RecommendationView" style="rounded=0;whiteSpace=wrap;html=1;labelBackgroundColor=none;" parent="1" vertex="1">
          <mxGeometry x="1010" y="490" width="140" height="60" as="geometry" />
        </mxCell>
        <mxCell id="BmjrZnvKZ_t4JOuIgSai-75" value="GenreSelectView" style="rounded=0;whiteSpace=wrap;html=1;labelBackgroundColor=none;" parent="1" vertex="1">
          <mxGeometry x="1160" y="490" width="120" height="60" as="geometry" />
        </mxCell>
        <mxCell id="BmjrZnvKZ_t4JOuIgSai-80" style="edgeStyle=orthogonalEdgeStyle;rounded=0;orthogonalLoop=1;jettySize=auto;html=1;exitX=0.5;exitY=1;exitDx=0;exitDy=0;entryX=0.5;entryY=0;entryDx=0;entryDy=0;endArrow=none;endFill=0;labelBackgroundColor=none;fontColor=default;" parent="1" source="BmjrZnvKZ_t4JOuIgSai-81" target="BmjrZnvKZ_t4JOuIgSai-82" edge="1">
          <mxGeometry relative="1" as="geometry" />
        </mxCell>
        <mxCell id="BmjrZnvKZ_t4JOuIgSai-81" value="HomeView" style="rounded=0;whiteSpace=wrap;html=1;labelBackgroundColor=none;" parent="1" vertex="1">
          <mxGeometry x="1290" y="490" width="120" height="60" as="geometry" />
        </mxCell>
        <mxCell id="BmjrZnvKZ_t4JOuIgSai-82" value="movie" style="rounded=0;whiteSpace=wrap;html=1;labelBackgroundColor=none;" parent="1" vertex="1">
          <mxGeometry x="1282" y="580" width="120" height="60" as="geometry" />
        </mxCell>
        <mxCell id="BmjrZnvKZ_t4JOuIgSai-83" value="movie" style="rounded=0;whiteSpace=wrap;html=1;labelBackgroundColor=none;" parent="1" vertex="1">
          <mxGeometry x="1292" y="590" width="120" height="60" as="geometry" />
        </mxCell>
        <mxCell id="BmjrZnvKZ_t4JOuIgSai-86" style="edgeStyle=orthogonalEdgeStyle;rounded=0;orthogonalLoop=1;jettySize=auto;html=1;exitX=0.5;exitY=1;exitDx=0;exitDy=0;entryX=0.5;entryY=0;entryDx=0;entryDy=0;endArrow=none;endFill=0;labelBackgroundColor=none;fontColor=default;" parent="1" source="BmjrZnvKZ_t4JOuIgSai-87" edge="1">
          <mxGeometry relative="1" as="geometry">
            <mxPoint x="1492" y="600" as="targetPoint" />
          </mxGeometry>
        </mxCell>
        <mxCell id="BmjrZnvKZ_t4JOuIgSai-87" value="FavoriteMovieView" style="rounded=0;whiteSpace=wrap;html=1;labelBackgroundColor=none;" parent="1" vertex="1">
          <mxGeometry x="1432" y="490" width="120" height="60" as="geometry" />
        </mxCell>
        <mxCell id="7nvBT5U9Qyf3tJzfxTRd-1" value="Review" style="rounded=0;whiteSpace=wrap;html=1;labelBackgroundColor=none;" parent="1" vertex="1">
          <mxGeometry x="789" y="575" width="120" height="60" as="geometry" />
        </mxCell>
        <mxCell id="7nvBT5U9Qyf3tJzfxTRd-2" value="ReviewCreate" style="rounded=0;whiteSpace=wrap;html=1;labelBackgroundColor=none;" parent="1" vertex="1">
          <mxGeometry x="789" y="655" width="120" height="60" as="geometry" />
        </mxCell>
        <mxCell id="7nvBT5U9Qyf3tJzfxTRd-7" value="Sub Modal" style="rounded=0;whiteSpace=wrap;html=1;labelBackgroundColor=none;" parent="1" vertex="1">
          <mxGeometry x="959" y="656" width="120" height="60" as="geometry" />
        </mxCell>
        <mxCell id="7nvBT5U9Qyf3tJzfxTRd-11" value="Sub Modal" style="rounded=0;whiteSpace=wrap;html=1;labelBackgroundColor=none;" parent="1" vertex="1">
          <mxGeometry x="969" y="666" width="120" height="60" as="geometry" />
        </mxCell>
        <mxCell id="7nvBT5U9Qyf3tJzfxTRd-12" value="SubCarousel" style="rounded=0;whiteSpace=wrap;html=1;labelBackgroundColor=none;" parent="1" vertex="1">
          <mxGeometry x="979" y="676" width="120" height="60" as="geometry" />
        </mxCell>
        <mxCell id="7nvBT5U9Qyf3tJzfxTRd-14" value="SubCarousel" style="rounded=0;whiteSpace=wrap;html=1;labelBackgroundColor=none;" parent="1" vertex="1">
          <mxGeometry x="1302" y="600" width="120" height="60" as="geometry" />
        </mxCell>
        <mxCell id="7nvBT5U9Qyf3tJzfxTRd-16" value="" style="edgeStyle=orthogonalEdgeStyle;rounded=0;orthogonalLoop=1;jettySize=auto;html=1;endArrow=none;endFill=0;" parent="1" source="7nvBT5U9Qyf3tJzfxTRd-15" target="BmjrZnvKZ_t4JOuIgSai-87" edge="1">
          <mxGeometry relative="1" as="geometry" />
        </mxCell>
        <mxCell id="7nvBT5U9Qyf3tJzfxTRd-15" value="SubCarousel" style="rounded=0;whiteSpace=wrap;html=1;labelBackgroundColor=none;" parent="1" vertex="1">
          <mxGeometry x="1432" y="590" width="120" height="60" as="geometry" />
        </mxCell>
        <mxCell id="7nvBT5U9Qyf3tJzfxTRd-17" value="ProfileView" style="rounded=0;whiteSpace=wrap;html=1;labelBackgroundColor=none;" parent="1" vertex="1">
          <mxGeometry x="1562" y="490" width="120" height="60" as="geometry" />
        </mxCell>
        <mxCell id="7nvBT5U9Qyf3tJzfxTRd-18" value="SignUpView" style="rounded=0;whiteSpace=wrap;html=1;labelBackgroundColor=none;" parent="1" vertex="1">
          <mxGeometry x="1302" y="290" width="120" height="60" as="geometry" />
        </mxCell>
        <mxCell id="7nvBT5U9Qyf3tJzfxTRd-19" value="LoginView" style="rounded=0;whiteSpace=wrap;html=1;labelBackgroundColor=none;" parent="1" vertex="1">
          <mxGeometry x="1302" y="360" width="120" height="60" as="geometry" />
        </mxCell>
        <mxCell id="7nvBT5U9Qyf3tJzfxTRd-31" value="" style="endArrow=none;html=1;rounded=0;" parent="1" edge="1">
          <mxGeometry width="50" height="50" relative="1" as="geometry">
            <mxPoint x="788" y="605" as="sourcePoint" />
            <mxPoint x="769" y="605" as="targetPoint" />
          </mxGeometry>
        </mxCell>
        <mxCell id="7nvBT5U9Qyf3tJzfxTRd-32" value="" style="endArrow=none;html=1;rounded=0;entryX=0.25;entryY=1;entryDx=0;entryDy=0;exitX=0;exitY=0.5;exitDx=0;exitDy=0;" parent="1" source="7nvBT5U9Qyf3tJzfxTRd-2" target="BmjrZnvKZ_t4JOuIgSai-30" edge="1">
          <mxGeometry width="50" height="50" relative="1" as="geometry">
            <mxPoint x="1049" y="560" as="sourcePoint" />
            <mxPoint x="1099" y="510" as="targetPoint" />
            <Array as="points">
              <mxPoint x="769" y="685" />
            </Array>
          </mxGeometry>
        </mxCell>
        <mxCell id="7nvBT5U9Qyf3tJzfxTRd-33" value="" style="endArrow=none;html=1;rounded=0;entryX=0.5;entryY=1;entryDx=0;entryDy=0;exitX=0;exitY=0.5;exitDx=0;exitDy=0;" parent="1" source="7nvBT5U9Qyf3tJzfxTRd-7" target="BmjrZnvKZ_t4JOuIgSai-20" edge="1">
          <mxGeometry width="50" height="50" relative="1" as="geometry">
            <mxPoint x="1049" y="560" as="sourcePoint" />
            <mxPoint x="1099" y="510" as="targetPoint" />
            <Array as="points">
              <mxPoint x="939" y="686" />
            </Array>
          </mxGeometry>
        </mxCell>
        <mxCell id="7nvBT5U9Qyf3tJzfxTRd-35" value="" style="endArrow=none;html=1;rounded=0;" parent="1" edge="1">
          <mxGeometry width="50" height="50" relative="1" as="geometry">
            <mxPoint x="939" y="606" as="sourcePoint" />
            <mxPoint x="959" y="606" as="targetPoint" />
          </mxGeometry>
        </mxCell>
        <mxCell id="7nvBT5U9Qyf3tJzfxTRd-45" value="router-view" style="rounded=0;whiteSpace=wrap;html=1;labelBackgroundColor=none;" parent="1" vertex="1">
          <mxGeometry x="1120" y="336" width="120" height="60" as="geometry" />
        </mxCell>
        <mxCell id="7nvBT5U9Qyf3tJzfxTRd-46" value="" style="endArrow=none;html=1;rounded=0;entryX=0.5;entryY=1;entryDx=0;entryDy=0;exitX=0.5;exitY=0;exitDx=0;exitDy=0;" parent="1" source="7nvBT5U9Qyf3tJzfxTRd-45" target="BmjrZnvKZ_t4JOuIgSai-1" edge="1">
          <mxGeometry width="50" height="50" relative="1" as="geometry">
            <mxPoint x="1050" y="446" as="sourcePoint" />
            <mxPoint x="1100" y="396" as="targetPoint" />
          </mxGeometry>
        </mxCell>
        <mxCell id="7nvBT5U9Qyf3tJzfxTRd-49" value="" style="endArrow=none;html=1;rounded=0;entryX=0;entryY=0.5;entryDx=0;entryDy=0;" parent="1" target="7nvBT5U9Qyf3tJzfxTRd-19" edge="1">
          <mxGeometry width="50" height="50" relative="1" as="geometry">
            <mxPoint x="1260" y="390" as="sourcePoint" />
            <mxPoint x="1580" y="360" as="targetPoint" />
          </mxGeometry>
        </mxCell>
        <mxCell id="7nvBT5U9Qyf3tJzfxTRd-50" value="" style="endArrow=none;html=1;rounded=0;" parent="1" edge="1">
          <mxGeometry width="50" height="50" relative="1" as="geometry">
            <mxPoint x="1040" y="350" as="sourcePoint" />
            <mxPoint x="1180" y="320" as="targetPoint" />
            <Array as="points">
              <mxPoint x="1040" y="320" />
            </Array>
          </mxGeometry>
        </mxCell>
        <mxCell id="7nvBT5U9Qyf3tJzfxTRd-51" value="router-link" style="rounded=0;whiteSpace=wrap;html=1;labelBackgroundColor=none;" parent="1" vertex="1">
          <mxGeometry x="980" y="338" width="120" height="60" as="geometry" />
        </mxCell>
        <mxCell id="7nvBT5U9Qyf3tJzfxTRd-52" value="&lt;div&gt;Footer&lt;/div&gt;" style="rounded=0;whiteSpace=wrap;html=1;labelBackgroundColor=none;" parent="1" vertex="1">
          <mxGeometry x="830" y="210" width="120" height="60" as="geometry" />
        </mxCell>
        <mxCell id="7nvBT5U9Qyf3tJzfxTRd-53" value="NavBar" style="rounded=0;whiteSpace=wrap;html=1;labelBackgroundColor=none;" parent="1" vertex="1">
          <mxGeometry x="830" y="290" width="120" height="60" as="geometry" />
        </mxCell>
        <mxCell id="7nvBT5U9Qyf3tJzfxTRd-54" value="" style="endArrow=none;html=1;rounded=0;exitX=0.5;exitY=0;exitDx=0;exitDy=0;" parent="1" source="7nvBT5U9Qyf3tJzfxTRd-53" edge="1">
          <mxGeometry width="50" height="50" relative="1" as="geometry">
            <mxPoint x="1080" y="410" as="sourcePoint" />
            <mxPoint x="1120" y="280" as="targetPoint" />
            <Array as="points">
              <mxPoint x="890" y="280" />
            </Array>
          </mxGeometry>
        </mxCell>
        <mxCell id="7nvBT5U9Qyf3tJzfxTRd-56" value="" style="endArrow=none;html=1;rounded=0;entryX=0.5;entryY=0;entryDx=0;entryDy=0;exitX=0.5;exitY=1;exitDx=0;exitDy=0;" parent="1" source="7nvBT5U9Qyf3tJzfxTRd-52" target="7nvBT5U9Qyf3tJzfxTRd-53" edge="1">
          <mxGeometry width="50" height="50" relative="1" as="geometry">
            <mxPoint x="1080" y="410" as="sourcePoint" />
            <mxPoint x="1130" y="360" as="targetPoint" />
          </mxGeometry>
        </mxCell>
        <mxCell id="7nvBT5U9Qyf3tJzfxTRd-63" value="" style="endArrow=none;html=1;rounded=0;exitX=0;exitY=0.5;exitDx=0;exitDy=0;" parent="1" source="7nvBT5U9Qyf3tJzfxTRd-18" edge="1">
          <mxGeometry width="50" height="50" relative="1" as="geometry">
            <mxPoint x="1270" y="430" as="sourcePoint" />
            <mxPoint x="1180" y="430" as="targetPoint" />
            <Array as="points">
              <mxPoint x="1260" y="320" />
              <mxPoint x="1260" y="430" />
            </Array>
          </mxGeometry>
        </mxCell>
        <mxCell id="7nvBT5U9Qyf3tJzfxTRd-64" value="" style="endArrow=none;html=1;rounded=0;entryX=0.541;entryY=0.04;entryDx=0;entryDy=0;entryPerimeter=0;exitX=0.5;exitY=1;exitDx=0;exitDy=0;" parent="1" source="7nvBT5U9Qyf3tJzfxTRd-45" target="7nvBT5U9Qyf3tJzfxTRd-17" edge="1">
          <mxGeometry width="50" height="50" relative="1" as="geometry">
            <mxPoint x="1190" y="520" as="sourcePoint" />
            <mxPoint x="1240" y="470" as="targetPoint" />
            <Array as="points">
              <mxPoint x="1180" y="460" />
              <mxPoint x="1627" y="460" />
            </Array>
          </mxGeometry>
        </mxCell>
        <mxCell id="7nvBT5U9Qyf3tJzfxTRd-65" value="" style="endArrow=none;html=1;rounded=0;entryX=0.5;entryY=0;entryDx=0;entryDy=0;" parent="1" target="BmjrZnvKZ_t4JOuIgSai-87" edge="1">
          <mxGeometry width="50" height="50" relative="1" as="geometry">
            <mxPoint x="1492" y="460" as="sourcePoint" />
            <mxPoint x="1240" y="470" as="targetPoint" />
          </mxGeometry>
        </mxCell>
        <mxCell id="7nvBT5U9Qyf3tJzfxTRd-67" value="" style="endArrow=none;html=1;rounded=0;entryX=0.5;entryY=0;entryDx=0;entryDy=0;" parent="1" edge="1">
          <mxGeometry width="50" height="50" relative="1" as="geometry">
            <mxPoint x="1351.63" y="460" as="sourcePoint" />
            <mxPoint x="1351.63" y="490" as="targetPoint" />
          </mxGeometry>
        </mxCell>
        <mxCell id="7nvBT5U9Qyf3tJzfxTRd-68" value="" style="endArrow=none;html=1;rounded=0;entryX=0.5;entryY=0;entryDx=0;entryDy=0;" parent="1" edge="1">
          <mxGeometry width="50" height="50" relative="1" as="geometry">
            <mxPoint x="1219.63" y="460" as="sourcePoint" />
            <mxPoint x="1219.63" y="490" as="targetPoint" />
          </mxGeometry>
        </mxCell>
        <mxCell id="7nvBT5U9Qyf3tJzfxTRd-69" value="" style="endArrow=none;html=1;rounded=0;entryX=0.5;entryY=0;entryDx=0;entryDy=0;" parent="1" edge="1">
          <mxGeometry width="50" height="50" relative="1" as="geometry">
            <mxPoint x="1080" y="460" as="sourcePoint" />
            <mxPoint x="1080" y="490" as="targetPoint" />
          </mxGeometry>
        </mxCell>
        <mxCell id="7nvBT5U9Qyf3tJzfxTRd-71" value="" style="endArrow=none;html=1;rounded=0;exitX=0.5;exitY=0;exitDx=0;exitDy=0;" parent="1" source="BmjrZnvKZ_t4JOuIgSai-20" edge="1">
          <mxGeometry width="50" height="50" relative="1" as="geometry">
            <mxPoint x="939" y="490" as="sourcePoint" />
            <mxPoint x="1180" y="460" as="targetPoint" />
            <Array as="points">
              <mxPoint x="939" y="460" />
            </Array>
          </mxGeometry>
        </mxCell>
      </root>
    </mxGraphModel>
  </diagram>
</mxfile>
